<?xml version="1.0" encoding="utf-8"?>
<?xml-stylesheet href="../css/style.css"?>
<svg id="state1" xmlns="http://www.w3.org/2000/svg" viewBox="0 0 400 300">
  <g id="neutral_state" data-name="neutral state">
    <g id="environment">
      <rect y="-1" width="399.77" height="300.13" fill="#007f7f" />
      <ellipse cx="71.22" cy="48.55" rx="0.95" ry="0.93" fill="#fff" />
      <ellipse cx="150.98" cy="112.13" rx="0.95" ry="0.93" fill="#fff" />
      <ellipse cx="71.44" cy="128.98" rx="0.95" ry="0.93" fill="#fff" />
      <ellipse cx="37.98" cy="76.6" rx="0.95" ry="0.93" fill="#fff" />
      <ellipse cx="10.47" cy="17.34" rx="0.95" ry="0.93" fill="#fff" />
      <ellipse cx="88.31" cy="70.06" rx="0.95" ry="0.93" fill="#fff" />
      <ellipse cx="94.96" cy="99.98" rx="0.95" ry="0.93" fill="#fff" />
      <ellipse cx="13.29" cy="103.72" rx="0.95" ry="0.93" fill="#fff" />
      <ellipse cx="13.29" cy="56.97" rx="0.95" ry="0.93" fill="#fff" />
      <ellipse cx="110.15" cy="26.12" rx="0.95" ry="0.93" fill="#fff" />
      <ellipse cx="57.92" cy="99.04" rx="0.95" ry="0.93" fill="#fff" />
      <ellipse cx="189.31" cy="70.18" rx="0.95" ry="0.93" fill="#fff" />
      <ellipse cx="188.97" cy="46.68" rx="0.95" ry="0.93" fill="#fff" />
      <ellipse cx="148.13" cy="71.93" rx="0.95" ry="0.93" fill="#fff" />
      <ellipse cx="148.13" cy="23.31" rx="0.95" ry="0.93" fill="#fff" />
      <ellipse cx="231.7" cy="35.46" rx="0.95" ry="0.93" fill="#fff" />
      <ellipse cx="231.7" cy="70.06" rx="0.95" ry="0.93" fill="#fff" />
      <ellipse cx="266.83" cy="33.59" rx="0.95" ry="0.93" fill="#fff" />
      <ellipse cx="206.06" cy="14.9" rx="0.95" ry="0.93" fill="#fff" />
      <ellipse cx="266.83" cy="73.8" rx="0.95" ry="0.93" fill="#fff" />
      <ellipse cx="301.02" cy="24.25" rx="0.95" ry="0.93" fill="#fff" />
      <ellipse cx="335.68" cy="62.11" rx="31.81" ry="31.32" fill="#ecea6e" />
      <path
        d="M345.65,40.14s-4.41,1.87-1.26,3.74S348.11,42,348.11,42Z"
        fill="#d9e478"
      />
      <path
        d="M354.19,81.28s-5.69,5.61-4.75,1.87,4.75-5.45,4.75-5.45Z"
        fill="#d9e478"
      />
      <path
        d="M316.57,52.33s-4.4,1.87-1.25,3.74S319,54.2,319,54.2Z"
        fill="#d9e478"
      />
      <path
        d="M332.35,86.67s-5.7,5.61-4.75,1.87,4.75-5.45,4.75-5.45Z"
        fill="#d9e478"
      />
      <path
        d="M315.93,73.33l-3.52,4.21,2,.33a2,2,0,0,0,2.23-2.78Z"
        fill="#d9e478"
      />
      <path
        d="M356.62,57.23l-3.52,4.21,2,.33A2,2,0,0,0,357.37,59Z"
        fill="#d9e478"
      />
      <path
        d="M329.93,70.86s-4.41,1.87-1.25,3.74,3.71-1.87,3.71-1.87Z"
        fill="#d9e478"
      />
      <path
        d="M325.65,40.4l-3.88,4.21,2.23.33a2.1,2.1,0,0,0,2.48-2.78Z"
        fill="#d9e478"
      />
      <path
        d="M335.2,56.63s-5.7,5.61-4.75,1.87,4.75-5.45,4.75-5.45Z"
        fill="#d9e478"
      />
      <path
        d="M345.65,65.65s-5.7,5.57-4.75,1.85,4.75-5.41,4.75-5.41Z"
        fill="#d9e478"
      />
      <ellipse
        cx="203.95"
        cy="222.58"
        rx="33.71"
        ry="3.05"
        fill="#fff"
        opacity="0.29"
      />
      <path
        d="M26.59,53s0-12.7,8.06-7.94c0,0,0-9.52,8.06-4.76,0,0,0-11.75,8.06-5.88,0,0,6.45-17.93,12.9-.47,0,0,12.25-1.29,5.32,5.71,0,0,10.81,2.9,2.75,7.33,0,0,6.45,1.25,1.61,6S26.59,53,26.59,53Z"
        fill="#eef9fe"
      />
      <ellipse cx="238.34" cy="109.33" rx="0.95" ry="0.93" fill="#fff" />
      <ellipse cx="287.72" cy="104.65" rx="0.95" ry="0.93" fill="#fff" />
      <ellipse cx="374.13" cy="19.57" rx="0.95" ry="0.93" fill="#fff" />
      <ellipse cx="279.18" cy="132.57" rx="0.95" ry="0.93" fill="#fff" />
      <ellipse cx="332.35" cy="127.09" rx="0.95" ry="0.93" fill="#fff" />
      <ellipse cx="197.51" cy="107.46" rx="0.95" ry="0.93" fill="#fff" />
      <ellipse cx="341.85" cy="10.22" rx="0.95" ry="0.93" fill="#fff" />
      <ellipse cx="383.63" cy="85.02" rx="0.95" ry="0.93" fill="#fff" />
      <path
        d="M5.78,297.82s-16.85-15.62,9.33-17.71c0,0-12.93-10.42-5.9-11.18l7-.76S21.92,240.87,28,257.6c0,0,.94-25.88,11-18.93,0,0,5.74-25.86,13.14-16.49,0,0,8.85-21.76,12.06-7.34,0,0,17.75-9.82,9.84,9s1,3.52,1,3.52,28.22-.94,14.31,14.39c0,0,29.58-3.41,12.76,18.46,0,0,26.65-1.2,9.79,15.3,0,0,17.19,12.12-1.42,14.92s-4.49-1-4.49-1,17.27,11.24-5.46,9.14-91-.39-91-.39Z"
        fill="#24b34b"
      />
      <path
        d="M112.38,298.39s-11.69-10.83,6.48-12.28c0,0-9-7.23-4.09-7.75l4.88-.53s3.93-18.94,8.12-7.33c0,0,.65-18,7.61-13.13,0,0,4-17.94,9.12-11.44,0,0,6.14-15.1,8.37-5.09,0,0,12.31-6.82,6.82,6.25s.7,2.44.7,2.44,19.57-.65,9.92,10c0,0,20.52-2.37,8.85,12.8,0,0,18.49-.83,6.79,10.62,0,0,11.92,8.41-1,10.35s-3.12-.72-3.12-.72,12,7.8-3.78,6.34-63.14-.27-63.14-.27Z"
        fill="#24b34b"
      />
      <path
        d="M189.22,299.29s-12.09-11.21,6.69-12.71c0,0-9.27-7.47-4.22-8l5-.55s4.07-19.58,8.4-7.58c0,0,.68-18.57,7.88-13.58,0,0,4.11-18.55,9.43-11.83,0,0,6.35-15.61,8.65-5.26,0,0,12.73-7.05,7,6.46s.72,2.53.72,2.53,20.24-.68,10.27,10.32c0,0,21.22-2.45,9.15,13.24,0,0,19.12-.86,7,11,0,0,12.32,8.7-1,10.7s-3.22-.73-3.22-.73,12.39,8.06-3.91,6.55-65.29-.28-65.29-.28Z"
        fill="#24b34b"
      />
      <path
        d="M270.17,298.29s-9.37-8.68,5.19-9.85c0,0-7.19-5.79-3.28-6.21l3.91-.42s3.15-15.18,6.51-5.88c0,0,.53-14.39,6.11-10.53,0,0,3.19-14.38,7.31-9.17,0,0,4.92-12.1,6.7-4.08,0,0,9.87-5.46,5.47,5s.56,2,.56,2,15.69-.52,8,8c0,0,16.45-1.9,7.09,10.26,0,0,14.82-.66,5.45,8.51,0,0,9.55,6.75-.8,8.3s-2.49-.57-2.49-.57,9.6,6.25-3,5.08-50.61-.22-50.61-.22Z"
        fill="#24b34b"
      />
      <path
        d="M322.91,297.63s-11.46-10.62,6.35-12c0,0-8.8-7.09-4-7.61l4.79-.51s3.85-18.58,8-7.2c0,0,.64-17.61,7.47-12.88,0,0,3.9-17.59,8.94-11.22,0,0,6-14.8,8.2-5,0,0,12.08-6.68,6.7,6.13s.68,2.39.68,2.39,19.2-.64,9.74,9.8c0,0,20.12-2.33,8.68,12.55,0,0,18.13-.81,6.66,10.41,0,0,11.69,8.25-1,10.15s-3.05-.69-3.05-.69,11.75,7.64-3.72,6.21-61.93-.26-61.93-.26Z"
        fill="#24b34b"
      />
      <polyline
        id="ufoLight"
        points="218.84 111.2 217.61 46.81 146.21 49.82 145.48 113.31"
        fill="#fff200"
        opacity="0.45"
      />
      <g id="ufo">
        <ellipse cx="180.74" cy="45.24" rx="47.26" ry="10.85" fill="#a49e97" />
        <path d="M203.87,37.42C182.52-5,155,37.42,155,37.42" fill="#b9e3e5" />
        <ellipse cx="145.79" cy="43.47" rx="4.61" ry="1.51" fill="#fcd935" />
        <ellipse cx="170.39" cy="46.5" rx="6.15" ry="1.51" fill="#fcd935" />
        <ellipse cx="198.83" cy="46.5" rx="5.38" ry="1.51" fill="#fcd935" />
        <ellipse cx="217.27" cy="43.47" rx="5.38" ry="1.51" fill="#fcd935" />
      </g>
    </g>
    <g id="vito">
      <ellipse
        id="ear2"
        cx="180.11"
        cy="134.53"
        rx="5.49"
        ry="5.53"
        fill="#f9c02b"
      />
      <ellipse
        id="ear1"
        cx="223.43"
        cy="133.74"
        rx="5.13"
        ry="5.53"
        fill="#f9c02b"
      />
      <g id="tail">
        <path
          d="M191,101.28s15.63-3.63,9.62,10.29,2.85,21.65,2.85,21.65l3.46-.17s-5.32-8.38-3.37-21.3.86-13.38-10.16-13.49"
          fill="#a05d47"
        />
        <path
          d="M189.69,93.44S194,87.78,194.06,90s-2.6,5.15-2.6,5.15,5.87-5.91,5.11-3a6.6,6.6,0,0,1-2.95,4l3.84.47s2.84.52-.47,1.7-5,.65-5,.65,7.64,3,3.3,3.19-3.26-1-3.26-1,1.78,6.1-.48,3.91-1.17-3.32-1.17-3.32-5.44,5.68-3.3,1.18-2.77.61-2.77.61-1.69-1.65,1.59-3.94-3.87.63-3.87.63-1.87-1.46,3.45-3.61c0,0-6.82,1.44-4.64-.83l5-1.77s-7.2.69-4.46-1a3.75,3.75,0,0,1,4.69.21s-.36-5.87.23-4.21,1.19,4.45,1.19,4.45,3.68-10.69,2.66-6.2S189.69,93.44,189.69,93.44Z"
          fill="#fcd935"
        />
      </g>
      <path
        id="vitoBody"
        d="M252.59,209.68C274,180.4,249.17,152,249.17,152c-51.51-51.17-92.18,0-92.18,0s-22.36,25.59,0,57.72c0,0,10.17-11.66,12.2-5.52s12.2-11.26,12.2-2,7.12-15.35,11.19-3.07,6.91-7.3,11.59.45,6.71-15.8,10.77-2.5,9.15-13.3,11.18,0,8.14-10.23,8.14,5.12,7.11-6.14,7.11,3.07,6.1-10.23,6.1,0S252.59,209.68,252.59,209.68Z"
        fill="#ee3729"
      />
      <g id="lX">
        <line
          x1="185.7"
          y1="156.05"
          x2="191.87"
          y2="163.32"
          fill="none"
          stroke="#231f20"
          stroke-miterlimit="10"
        />
        <line
          x1="184.65"
          y1="161.93"
          x2="192.95"
          y2="157.28"
          fill="none"
          stroke="#231f20"
          stroke-miterlimit="10"
        />
      </g>
      <g id="rX">
        <line
          x1="212.73"
          y1="156.24"
          x2="218.9"
          y2="163.51"
          fill="none"
          stroke="#231f20"
          stroke-miterlimit="10"
        />
        <line
          x1="211.69"
          y1="162.12"
          x2="219.99"
          y2="157.47"
          fill="none"
          stroke="#231f20"
          stroke-miterlimit="10"
        />
      </g>
      <ellipse
        id="deadMouth"
        cx="204.25"
        cy="178.56"
        rx="3.89"
        ry="7.05"
        fill="#231f20"
        stroke="#231f20"
        stroke-miterlimit="10"
      />
      <path
        id="deadEyeBrowR"
        d="M212,147.34s6.16-4.55,10.21,0"
        fill="none"
        stroke="#231f20"
        stroke-miterlimit="10"
      />
      <g id="eye1">
        <path
          d="M185,163.07v-8.41s2.4-6.9,6,0v8.41S187.75,170.32,185,163.07Z"
          fill="#231f20"
          stroke="#231f20"
          stroke-miterlimit="10"
        />
        <ellipse
          id="eyeball1"
          cx="188"
          cy="159.5"
          rx="1.25"
          ry="2.5"
          fill="#fff"
        />
      </g>
      <g id="eye2">
        <path
          d="M213.22,164.28v-8.4s2.4-6.9,6,0v8.4S216,171.53,213.22,164.28Z"
          fill="#231f20"
          stroke="#231f20"
          stroke-miterlimit="10"
        />
        <ellipse
          id="eyeball2"
          cx="216"
          cy="160.5"
          rx="1.25"
          ry="2.5"
          fill="#fff"
        />
      </g>
      <path
        id="eyeBrow1"
        d="M181.22,147.4s7.47-12.27,12.81-.28"
        fill="none"
        stroke="#231f20"
        stroke-miterlimit="10"
      />
      <path
        id="eyeBrow2"
        d="M209.17,147.13s7.47-12.27,12.81-.29"
        fill="none"
        stroke="#231f20"
        stroke-miterlimit="10"
      />
      <path
        id="deadEyeBrowL"
        d="M183.11,147s6.16-4.55,10.21,0"
        fill="none"
        stroke="#231f20"
        stroke-miterlimit="10"
      />
      <path
        id="angryMouth"
        d="M194.53,181.65s9.22-17.79,18.52,0"
        fill="none"
        stroke="#231f20"
        stroke-miterlimit="10"
      />
      <line
        id="angryEyeBrowL"
        x1="192.53"
        y1="147.5"
        x2="185.3"
        y2="143.95"
        fill="none"
        stroke="#231f20"
        stroke-miterlimit="10"
      />
      <line
        id="angryEyeBrowR"
        x1="219.35"
        y1="144.17"
        x2="212.11"
        y2="147.5"
        fill="none"
        stroke="#231f20"
        stroke-miterlimit="10"
      />
      <path
        id="happyMouth"
        d="M192,175.3s10.83,9.78,23,0"
        fill="none"
        stroke="#231f20"
        stroke-miterlimit="10"
      />
      <ellipse
        id="blush2"
        cx="162.56"
        cy="170.36"
        rx="4.56"
        ry="1.41"
        fill="#fff"
        opacity="0.54"
      />
      <ellipse
        id="blush1"
        cx="245.44"
        cy="170.15"
        rx="4.56"
        ry="1.41"
        fill="#fff"
        opacity="0.54"
      />
      <path
        id="darkCircle1"
        d="M192.25,168.72s-3.75,2.65-6.32.13"
        fill="#070807"
        opacity="0.58"
      />
      <path
        id="darkCircle2"
        d="M218.52,169.32s-4,2.25-6.31-.51"
        fill="#070807"
        opacity="0.58"
      />
      <path
        id="sickEyebrowR"
        d="M215.91,141.85s0,7.32,8,3.77"
        fill="none"
        stroke="#231f20"
        stroke-miterlimit="10"
      />
      <path
        id="sickEyebrowL"
        d="M182,145.24s5.77,4.51,7.87-3.93"
        fill="none"
        stroke="#231f20"
        stroke-miterlimit="10"
      />
      <polyline
        id="sickMouth"
        points="193 177.09 196.03 178.31 199.5 177.09 202.09 178.31 205.73 177.1 208.42 178.31 211.1 177.09 213.43 177.7"
        fill="none"
        stroke="#231f20"
        stroke-miterlimit="10"
        stroke-width="0.75"
      />
      <g id="sickMouth2">
        <path
          d="M194.39,175s4.06,3.2,0,6.7"
          fill="none"
          stroke="#231f20"
          stroke-miterlimit="10"
        />
        <line
          id="mouth1"
          x1="196.18"
          y1="178.09"
          x2="209.5"
          y2="178.09"
          fill="none"
          stroke="#231f20"
          stroke-miterlimit="10"
        />
        <path
          d="M212.08,181.42s-4.49-2.57-1-6.63"
          fill="none"
          stroke="#231f20"
          stroke-miterlimit="10"
        />
      </g>
      <line
        id="mouth"
        data-name="mouth"
        x1="193.5"
        y1="178.5"
        x2="213.5"
        y2="178.5"
        fill="none"
        stroke="#231f20"
        stroke-miterlimit="10"
      />
       <ellipse id="talkingMouth" cx="203.5" cy="179" rx="9.44" ry="2.5" fill="#fff" stroke="#231f20" stroke-miterlimit="10" stroke-width="0.5"/>
      <path
        id="sickExpression"
        d="M171.28,147.77s-3.08,8.29,0,8S171.28,147.77,171.28,147.77Z"
        fill="#06abc7"
      />
      <path
        id="sadMouth"
        d="M194,182.22s8.72-11.36,18.52,0"
        fill="none"
        stroke="#231f20"
        stroke-miterlimit="10"
      />
      <line
        id="sadEyebrowL"
        x1="185.1"
        y1="145.73"
        x2="193.87"
        y2="142.44"
        fill="none"
        stroke="#231f20"
        stroke-miterlimit="10"
      />
      <line
        id="sadEyebrowR"
        x1="210.78"
        y1="142.44"
        x2="219"
        y2="145.73"
        fill="none"
        stroke="#231f20"
        stroke-miterlimit="10"
      />
    </g>
  </g>
</svg>
